<svg width="26" height="80" viewBox="0 0 26 80" xmlns="http://www.w3.org/2000/svg"><title>noun_dress_1011018</title><path d="M22.433 17.814a15.39 15.39 0 0 1-.536-7.645c.602-3.489.89-6.977.899-7.01a.825.825 0 0 0-.314-.685l-.61-.486a8.016 8.016 0 0 0-8.792-.734 8.016 8.016 0 0 0-8.684.643l-.75.577a.825.825 0 0 0-.322.742V3.3c.23 2.474.544 4.882.89 6.887.47 2.552.285 5.183-.536 7.645-.981 2.837-1.476 6.515-1.567 11.588C1.946 38.944.825 73.27.825 73.616a.825.825 0 0 0 .52.825l3.892 1.534v.825c-.004.414.3.767.71.825l6.201.89v.619c0 .456.37.825.825.825.074.01.149.01.223 0l7.423-2.112a.825.825 0 0 0 .593-.75l.058-1.13 3.678-1.386a.825.825 0 0 0 .537-.824c0-.347-1.205-34.846-1.37-44.38-.197-5.047-.7-8.758-1.682-11.563zM6.087 13.905c2.364.316 4.748.474 7.134.47 2.276.003 4.55-.157 6.804-.478 0 .495.066.981.132 1.468-4.711.66-9.491.66-14.202 0 .066-.52.107-.965.132-1.46zM5.394 3.184a6.359 6.359 0 0 1 7.241-.306.825.825 0 0 0 .874 0l.075-.05a6.359 6.359 0 0 1 7.257.421l.264.207c-.099 1.03-.371 3.728-.825 6.424a18.334 18.334 0 0 0-.247 2.343 51.274 51.274 0 0 1-13.922 0 18.293 18.293 0 0 0-.247-2.35 83.104 83.104 0 0 1-.825-6.41l.355-.28zM21.17 74.227l-.355-34.095a.825.825 0 1 0-1.649 0l.363 35.241-.058 1.056-5.732 1.65V57.731a.825.825 0 1 0-1.65 0v19.126l-5.27-.75v-.685l.66-42.714a.825.825 0 1 0-1.65 0l-.593 41.518-2.763-1.138c.157-4.578 1.155-34.796 1.312-43.654.082-4.825.569-8.454 1.476-11.076.157-.446.28-.907.396-1.37 2.513.363 5.048.542 7.587.537 2.427.005 4.85-.177 7.25-.545.115.47.239.924.396 1.378.907 2.63 1.394 6.251 1.476 11.076.157 8.858 1.188 39.192 1.353 43.819l-2.549.973z" fill="#000" fill-rule="nonzero"/></svg>