<svg width="53" height="79" viewBox="0 0 53 79" xmlns="http://www.w3.org/2000/svg"><title>noun_dress_1499956</title><path d="M.526 65.88c0 .247.07.488.2.696.313.499 7.847 12.2 25.724 12.2 17.876 0 25.41-11.701 25.723-12.2.13-.208.2-.45.2-.696 0-10.69-7.748-26.384-12.366-34.787a5.158 5.158 0 0 1 .584-5.844l1.097-1.303c.03-.036.058-.073.084-.112a7.36 7.36 0 0 0 .937-6.3l-1.662-5.418-.058-.212c-.433-3.148.294-5.667.986-7.23a2.686 2.686 0 0 0-.204-2.56A2.69 2.69 0 0 0 39.508.886H33.05c-.587 0-1.103.391-1.262.957-.676 2.397-2.87 4.072-5.338 4.072-2.467 0-4.663-1.675-5.338-4.072A1.311 1.311 0 0 0 19.85.887h-6.554c-.882 0-1.706.433-2.205 1.156a2.747 2.747 0 0 0-.297 2.537c1.41 3.701 1.098 7.07 1.036 7.607l-1.573 5.13c-.698 2.276-.405 4.615.803 6.417.036.054.076.105.12.153l1.034 1.133a5.185 5.185 0 0 1 .723 5.991C8.302 39.434.527 55.166.527 65.881zm12.77-62.37h5.626c1.263 3.005 4.23 5.029 7.528 5.029 3.293 0 6.255-2.018 7.522-5.014l5.604.088a15.899 15.899 0 0 0-1.317 7.282c-2.76.223-8.709 1.292-11.787 6.266-2.778-4.5-9.142-5.63-11.953-5.913.048-1.633-.09-4.495-1.274-7.601l.051-.137zm.856 19.743l-.963-1.056c-.713-1.12-.873-2.65-.424-4.112l1.301-4.245c2.497.235 9.02 1.273 10.692 5.757.192.514.681.854 1.229.854h.925c.52 0 .992-.308 1.2-.785 2.224-5.066 8.276-5.999 10.616-6.168l1.474 4.805a4.754 4.754 0 0 1-.568 4.01l-1.05 1.247a7.764 7.764 0 0 0-.876 8.796c3.575 6.505 11.83 22.63 12.038 33.125-1.26 1.754-8.398 10.673-23.296 10.673-15.026 0-22.03-8.867-23.297-10.667.205-10.52 8.493-26.69 12.082-33.212a7.805 7.805 0 0 0-1.083-9.022z" fill="#000" fill-rule="nonzero"/></svg>