<svg width="55" height="80" viewBox="0 0 55 80" xmlns="http://www.w3.org/2000/svg"><title>noun_Christmas_1179714</title><g fill="#000" fill-rule="nonzero"><path d="M27.125 7.017a2.977 2.977 0 0 0-2.973 2.973 2.976 2.976 0 0 0 2.973 2.973 2.976 2.976 0 0 0 2.973-2.973 2.977 2.977 0 0 0-2.973-2.973zm0 3.945a.975.975 0 0 1-.973-.973c0-.536.437-.973.973-.973s.973.437.973.973a.975.975 0 0 1-.973.973zM27.125.001a2.977 2.977 0 0 0-2.973 2.973 2.976 2.976 0 0 0 2.973 2.973 2.976 2.976 0 0 0 2.973-2.973A2.977 2.977 0 0 0 27.125.001zm0 3.945a.975.975 0 0 1-.973-.973c0-.536.437-.973.973-.973s.973.437.973.973a.975.975 0 0 1-.973.973zM34.674 27.259V22.62a3.084 3.084 0 0 0-2.951-3.074c.016-.16.048-.317.048-.48a4.651 4.651 0 0 0-4.646-4.646 4.651 4.651 0 0 0-4.646 4.646c0 .163.031.32.048.48a3.084 3.084 0 0 0-2.951 3.074v4.639l-.101.029c-.021.007-.043.009-.063.018A26.96 26.96 0 0 0 7.308 34.9c-.015.013-.034.018-.048.032-.018.018-.024.041-.04.06C2.868 39.775.211 46.127.211 53.088.212 67.927 12.285 80 27.125 80c14.84 0 26.913-12.073 26.913-26.913 0-12.219-8.188-22.556-19.364-25.828zM27.125 16.42a2.65 2.65 0 0 1 2.646 2.646c0 .158-.019.313-.046.466h-5.199a2.676 2.676 0 0 1-.046-.466 2.648 2.648 0 0 1 2.645-2.646zm-5.549 6.2c0-.6.488-1.088 1.088-1.088h8.923c.6 0 1.088.488 1.088 1.088v4.132a26.923 26.923 0 0 0-11.098 0V22.62h-.001zm10.431 54.897L2.695 48.205a24.842 24.842 0 0 1 5.332-11.094l35.105 35.046a24.834 24.834 0 0 1-11.125 5.36zM2.212 53.087c0-.816.042-1.622.119-2.418l27.212 27.212c-.796.077-1.602.119-2.418.119C13.388 78 2.212 66.824 2.212 53.087zm42.402 17.721l-35.24-35.18a24.939 24.939 0 0 1 10.15-6.265l31.324 31.324a24.937 24.937 0 0 1-6.234 10.121zm6.834-12.349L21.753 28.764a24.903 24.903 0 0 1 5.372-.59c13.737 0 24.913 11.176 24.913 24.913 0 1.845-.208 3.641-.59 5.372z"/></g></svg>