<svg width="76" height="76" viewBox="0 0 76 76" xmlns="http://www.w3.org/2000/svg"><title>Shape</title><path d="M38.78 75.664c-9.82 0-19.53-3.71-26.95-11.13-14.84-14.839-14.84-39.171 0-54.01C16.52 5.831 22.304 2.448 28.633.703c.436-.11.873 0 1.2.436.218.327.328.873 0 1.2-8.074 12.766-6.22 29.024 4.474 39.717C45 52.75 61.257 54.496 74.024 46.531c.327-.218.873-.218 1.2 0 .328.218.546.764.437 1.2-1.746 6.329-5.129 12.22-9.82 16.803-7.53 7.42-17.24 11.13-27.06 11.13zM26.56 3.54c-4.91 1.746-9.493 4.692-13.203 8.402-14.075 14.076-14.075 36.88 0 50.956 14.076 14.075 36.88 14.075 50.956 0 3.71-3.71 6.656-8.293 8.402-13.203-13.203 6.874-29.243 4.474-39.936-6.22C22.086 32.784 19.686 16.744 26.56 3.54z" fill="#000" fill-rule="nonzero"/></svg>