<svg width="29" height="60" viewBox="0 0 29 60" xmlns="http://www.w3.org/2000/svg"><title>noun_fashion_1226100_000000</title><g fill="#F2DAC3" fill-rule="nonzero"><path d="M21.599 39H5.25c-.45 0-.75-.297-.75-.741V21.65c0-.296.15-.519.45-.667a4.56 4.56 0 0 0 2.7-4.152 4.56 4.56 0 0 0-2.7-4.152c-.3-.149-.45-.371-.45-.668V6.08c0-.074-.074-1.409.825-2.447.6-.667 1.5-.964 2.625-.964.675 0 1.2-.148 1.575-.519.525-.519.525-1.409.525-1.409a.67.67 0 0 1 .225-.519c.15-.148.3-.222.524-.222h5.4c.225 0 .374.074.524.222.15.149.225.371.225.52 0 0 0 .815.525 1.408.3.37.825.52 1.575.52 1.125 0 2.025.37 2.625.963.9 1.038.824 2.373.824 2.521v5.857c0 .297-.15.52-.45.668a4.56 4.56 0 0 0-2.699 4.152 4.56 4.56 0 0 0 2.7 4.152c.3.148.45.37.45.667V38.26a.67.67 0 0 1-.225.519c-.15.148-.45.222-.675.222zM6 37.517h14.923V22.095c-1.95-1.038-3.15-3.114-3.15-5.264 0-2.225 1.2-4.226 3.15-5.264V6.154c0-.074.075-.89-.45-1.409-.3-.37-.825-.519-1.5-.519-1.125 0-2.025-.37-2.624-.964-.525-.519-.75-1.186-.825-1.705H11.55c-.075.519-.3 1.112-.825 1.705-.6.668-1.5.964-2.624.964-.675 0-1.2.149-1.5.52-.525.518-.45 1.334-.45 1.408v5.487c1.95 1.038 3.15 3.114 3.15 5.264 0 2.224-1.2 4.226-3.15 5.264v15.348h-.15z"/><path d="M12.75 58.5c-.45 0-.75-.307-.75-.766V38.266c0-.46.3-.766.75-.766s.75.307.75.766v19.39c0 .46-.3.844-.75.844z"/><path d="M26.411 60H2.089C.969 60 0 58.991 0 57.75s.97-2.25 2.089-2.25h24.322c1.12 0 2.089 1.009 2.089 2.25S27.53 60 26.411 60zM2.089 57.13c-.298 0-.597.31-.597.698 0 .388.299.698.597.698h24.322c.298 0 .597-.31.597-.698 0-.388-.299-.699-.597-.699H2.089zM9.03 13.5c-.816 0-1.34-1.161-1.399-1.29-.175-.387-.175-1.033 0-1.42s.466-.387.64 0c0 0 .35.775.758.775.233 0 .466-.259.7-.775.174-.387.465-.387.64 0s.175 1.033 0 1.42c-.408.774-.874 1.29-1.34 1.29zM17.97 13.5c-.465 0-.931-.387-1.339-1.29-.175-.387-.175-1.033 0-1.42s.466-.387.64 0c.234.516.467.775.7.775.408 0 .757-.775.757-.775.175-.387.466-.387.64 0 .176.387.176 1.033 0 1.42-.057 0-.582 1.161-1.397 1.29z"/></g></svg>