<svg width="80" height="80" viewBox="0 0 80 80" xmlns="http://www.w3.org/2000/svg"><title>noun_Party_2033851</title><g fill="#000" fill-rule="nonzero"><path d="M39.013 45.45l-1.422 2.594a14.393 14.393 0 0 1-5.735 5.725l-2.599 1.419a1 1 0 0 0 0 1.756l2.599 1.418a14.394 14.394 0 0 1 5.735 5.726l1.422 2.594a1 1 0 0 0 1.754 0l1.421-2.594c1.326-2.421 3.31-4.401 5.734-5.725l2.6-1.42a1 1 0 0 0 0-1.755l-2.6-1.418a14.392 14.392 0 0 1-5.734-5.726l-1.421-2.594c-.351-.64-1.404-.64-1.754 0zm.877 2.562l.544.993a16.39 16.39 0 0 0 6.53 6.52l.992.54-.992.542a16.383 16.383 0 0 0-6.53 6.52l-.544.994-.545-.994a16.387 16.387 0 0 0-6.53-6.52l-.992-.541.992-.542a16.39 16.39 0 0 0 6.53-6.519l.545-.993zM27.044 63.713c-.352-.642-1.405-.642-1.756 0l-1.034 1.895a10.217 10.217 0 0 1-4.066 4.075l-1.89 1.036a1 1 0 0 0 0 1.754l1.89 1.037a10.217 10.217 0 0 1 4.066 4.074l1.034 1.895a1 1 0 0 0 1.756 0l1.035-1.895a10.219 10.219 0 0 1 4.065-4.074l1.891-1.037a1 1 0 0 0 0-1.754l-1.891-1.036a10.219 10.219 0 0 1-4.065-4.075l-1.035-1.895zm4.139 7.724l.29.16-.29.159a12.22 12.22 0 0 0-4.86 4.87l-.157.287-.156-.287a12.215 12.215 0 0 0-4.86-4.87l-.292-.16.291-.16a12.215 12.215 0 0 0 4.86-4.87l.157-.287.157.287a12.22 12.22 0 0 0 4.86 4.87zM61.482 70.72l-1.891-1.037a10.217 10.217 0 0 1-4.066-4.075l-1.034-1.895c-.352-.642-1.406-.642-1.756 0L51.7 65.608a10.217 10.217 0 0 1-4.066 4.075l-1.89 1.036a1 1 0 0 0 0 1.754l1.89 1.037a10.217 10.217 0 0 1 4.066 4.074l1.034 1.895a1 1 0 0 0 1.756 0l1.034-1.895a10.217 10.217 0 0 1 4.066-4.074l1.89-1.037a1 1 0 0 0 0-1.754zm-2.852 1.036a12.215 12.215 0 0 0-4.86 4.87l-.157.287-.156-.287a12.215 12.215 0 0 0-4.86-4.87l-.292-.16.291-.16a12.215 12.215 0 0 0 4.86-4.87l.157-.287.157.287a12.215 12.215 0 0 0 4.86 4.87l.29.16-.29.16z"/><path d="M64.43 52.502l.357-.127c1.438-.508 2.59-1.622 3.242-3.131l2.867-6.521c.814-1.885.754-4.216-.162-6.238L58.204 9.009a1 1 0 0 0-1.244-.528l-15.585 5.51a1 1 0 0 0-.638 1.177l7.112 29.395c.527 2.159 1.919 4.022 3.726 4.99l6.245 3.289c.882.471 1.817.71 2.738.71.592 0 1.18-.098 1.743-.298l.243-.085 7.81 22.611-6.442 2.277a1 1 0 0 0 .667 1.886l14.754-5.216a1 1 0 0 0-.666-1.886l-6.428 2.272-7.81-22.611zM42.893 15.575l13.87-4.903 2.285 5.01-14.914 5.024-1.24-5.13zM61.635 51.37c-.906.319-1.924.215-2.877-.294l-6.246-3.29c-1.308-.7-2.325-2.082-2.72-3.695l-5.185-21.433 15.276-5.146 9.03 19.802c.687 1.515.741 3.24.149 4.61l-2.867 6.522c-.43.998-1.168 1.724-2.075 2.045l-2.485.879z"/><path d="M57.521 26.784a4.392 4.392 0 0 0-2.256-2.543 4.326 4.326 0 0 0-3.35-.184c-2.285.807-3.495 3.34-2.698 5.647a4.393 4.393 0 0 0 2.256 2.544 4.354 4.354 0 0 0 3.35.184c2.284-.808 3.494-3.342 2.698-5.648zm-3.364 3.762c-.6.21-1.244.176-1.816-.1a2.405 2.405 0 0 1-1.234-1.395c-.439-1.271.222-2.666 1.475-3.109a2.36 2.36 0 0 1 1.814.1 2.41 2.41 0 0 1 1.235 1.395c.439 1.271-.223 2.666-1.474 3.109zM63.911 38.787a4.661 4.661 0 0 0-2.393-2.697 4.6 4.6 0 0 0-3.552-.195c-2.423.856-3.707 3.543-2.862 5.99a4.661 4.661 0 0 0 2.394 2.698 4.613 4.613 0 0 0 3.551.195c2.423-.857 3.706-3.544 2.862-5.99zm-3.528 4.105a2.609 2.609 0 0 1-2.017-.111 2.672 2.672 0 0 1-1.371-1.55c-.488-1.41.247-2.959 1.637-3.45a2.615 2.615 0 0 1 2.017.111 2.672 2.672 0 0 1 1.372 1.548c.487 1.412-.248 2.96-1.638 3.452zM.667 74.727l14.754 5.216a.997.997 0 0 0 1.276-.61 1 1 0 0 0-.61-1.276l-6.44-2.277 7.81-22.611.241.085c.565.2 1.153.299 1.745.299.92 0 1.853-.239 2.73-.708l6.258-3.296c1.801-.964 3.193-2.827 3.721-4.988l7.111-29.393a1 1 0 0 0-.638-1.178L23.04 8.481a1 1 0 0 0-1.243.528L9.265 36.487c-.915 2.02-.975 4.35-.158 6.242l2.862 6.509c.654 1.515 1.806 2.63 3.244 3.137l.357.127-7.81 22.611-6.427-2.272a1 1 0 0 0-.667 1.886zm22.57-64.055l13.87 4.903-1.223 5.055-14.9-5.02 2.252-4.938zm-9.435 37.767l-2.862-6.51c-.594-1.375-.54-3.101.145-4.614L20.15 17.44l15.262 5.142-5.203 21.505c-.396 1.616-1.413 2.999-2.715 3.696l-6.258 3.295c-.948.507-1.968.61-2.87.29l-2.487-.878c-.906-.32-1.643-1.047-2.077-2.051z"/><path d="M25.177 32.432a4.351 4.351 0 0 0 3.35-.184 4.392 4.392 0 0 0 2.256-2.543c.797-2.307-.414-4.84-2.698-5.647a4.339 4.339 0 0 0-3.35.183 4.395 4.395 0 0 0-2.256 2.543c-.796 2.306.415 4.84 2.698 5.648zm-.807-4.995a2.405 2.405 0 0 1 1.234-1.394 2.347 2.347 0 0 1 1.814-.1c1.252.443 1.914 1.837 1.474 3.109a2.407 2.407 0 0 1-1.234 1.394 2.342 2.342 0 0 1-1.814.1c-1.252-.443-1.913-1.837-1.474-3.108zM18.951 44.778a4.614 4.614 0 0 0 3.551-.195 4.661 4.661 0 0 0 2.394-2.698c.845-2.447-.439-5.134-2.862-5.99a4.6 4.6 0 0 0-3.552.195 4.661 4.661 0 0 0-2.393 2.697c-.844 2.447.44 5.134 2.862 5.99zm-.972-5.338a2.672 2.672 0 0 1 1.372-1.548 2.601 2.601 0 0 1 2.016-.112c1.391.492 2.126 2.04 1.638 3.452a2.672 2.672 0 0 1-1.371 1.549 2.615 2.615 0 0 1-2.016.111c-1.39-.492-2.126-2.04-1.639-3.452zM34.57 7.942a.999.999 0 0 0 1.404.171 1 1 0 0 0 .172-1.404l-3.247-4.15a1 1 0 0 0-1.575 1.233l3.246 4.15zM44.42 8.326c.298 0 .592-.132.789-.384l3.246-4.15a1 1 0 1 0-1.575-1.233l-3.246 4.15a1 1 0 0 0 .787 1.617zM39.89 6.784a1 1 0 0 0 1-1V1a1 1 0 0 0-2 0v4.784a1 1 0 0 0 1 1z"/></g></svg>