<svg width="48" height="60" viewBox="0 0 48 60" xmlns="http://www.w3.org/2000/svg"><title>seguridad</title><g fill="#F2DAC3" fill-rule="evenodd"><path d="M10.78 18.254c.66-.203 1.067-.762 1.067-1.423 0-1.882-.05-3.712 0-5.543C12.203 5.034 17.441.102 23.746.051c6.356-.051 11.644 4.78 12 11.085.101 1.88.05 3.762.05 5.644 0 .66.458 1.27 1.12 1.474.965.254 1.779.458 2.592.763 7.22 2.695 10.17 10.627 6.916 18.915-3.255 8.288-9.356 14.187-16.526 19.119-5.796 3.966-6.356 3.915-12.152-.102-6.661-4.576-12.458-10.017-15.712-17.542C.864 36.712.102 33.559.153 30.61c.05-6.508 3.508-10.373 10.627-12.356zm34.17 13.678c.1-.203.1-.457.1-.66-.61-4.526-2.897-7.882-6.762-9.408-4.22-1.627-8.796-.457-12 3.051-2.542 2.797-2.542 2.797-5.034-.101-3-3.509-7.627-4.577-12-2.848-4.068 1.627-6.56 5.288-6.05 9.865.355 2.847 1.27 5.796 2.643 8.338 3.61 6.662 9.153 11.543 15.56 15.356 1.271.763 3.356.763 4.627 0 6.458-3.813 11.898-8.745 15.61-15.305 1.576-2.542 2.288-5.491 3.305-8.288zM31.931 17.847c.458-.254.763-.762.763-1.27 0-1.475.05-3.153 0-4.831-.254-4.78-3.814-8.34-8.44-8.492-4.831-.152-8.594 2.899-9.153 7.678-.255 1.983-.102 4.017-.051 5.695 0 .56.305 1.017.813 1.271 2.644 1.373 5.034 2.695 7.322 3.865.458.254.967.203 1.373 0 2.288-1.17 4.678-2.441 7.373-3.916z" fill-rule="nonzero"/><path d="M25.322 39.203c0 .865.203 1.73-.05 2.492-.052.203-.204.407-.306.61-.61.864-2.034.864-2.491-.102-.051-.101-.102-.203-.102-.305a25.248 25.248 0 0 1 0-5.542c0-.153.102-.305.152-.458.509-.813 1.73-.864 2.34-.101.152.203.304.406.355.66.305.814.102 1.78.102 2.746z"/></g></svg>