<svg width="80" height="80" viewBox="0 0 80 80" xmlns="http://www.w3.org/2000/svg"><title>noun_sun_2480400</title><g fill="#000" fill-rule="evenodd"><path d="M21.649 40c0 10.117 8.234 18.351 18.351 18.351 10.117 0 18.351-8.234 18.351-18.351 0-10.117-8.234-18.351-18.351-18.351-10.117 0-18.351 8.234-18.351 18.351zM40 23.6c9.044 0 16.4 7.356 16.4 16.4 0 9.044-7.356 16.4-16.4 16.4-9.044 0-16.4-7.356-16.4-16.4 0-9.044 7.356-16.4 16.4-16.4z" fill-rule="nonzero"/><path d="M40.488 11.737a.483.483 0 0 0 .488-.488V.976a.483.483 0 0 0-.488-.488h-.976a.483.483 0 0 0-.488.488v10.273c0 .273.215.488.488.488h.976zM39.512 68.263a.483.483 0 0 0-.488.488v10.273c0 .274.215.488.488.488h.976a.483.483 0 0 0 .488-.488V68.751a.483.483 0 0 0-.488-.488h-.976zM19.668 20.361l.693-.693a.483.483 0 0 0 0-.692l-7.259-7.259a.483.483 0 0 0-.692 0l-.693.693a.483.483 0 0 0 0 .692l7.259 7.259a.49.49 0 0 0 .341.146.561.561 0 0 0 .351-.146zM59.639 61.024l7.259 7.259a.473.473 0 0 0 .683 0l.692-.693a.483.483 0 0 0 0-.692l-7.258-7.259a.483.483 0 0 0-.693 0l-.693.693a.51.51 0 0 0 .01.692zM.488 39.512v.976c0 .273.214.488.488.488h10.273a.483.483 0 0 0 .488-.488v-.976a.483.483 0 0 0-.488-.488H.976a.483.483 0 0 0-.488.488zM79.512 40.488v-.976a.483.483 0 0 0-.488-.488H68.751a.483.483 0 0 0-.488.488v.976c0 .273.215.488.488.488h10.273a.483.483 0 0 0 .488-.488zM11.717 67.59l.693.693a.473.473 0 0 0 .683 0l7.258-7.259a.483.483 0 0 0 0-.692l-.692-.693a.483.483 0 0 0-.693 0l-7.259 7.259a.492.492 0 0 0 .01.692zM60.332 20.361a.473.473 0 0 0 .683 0l7.258-7.259a.483.483 0 0 0 0-.692l-.693-.693a.483.483 0 0 0-.692 0l-7.259 7.259a.483.483 0 0 0 0 .692l.703.693z"/></g></svg>