<svg width="60" height="60" viewBox="0 0 60 60" xmlns="http://www.w3.org/2000/svg"><title>confianza1</title><g fill="#F2DAC3" fill-rule="evenodd"><path d="M16.453 56.438a1.098 1.098 0 0 0-.797-.329c-.281 0-.61.141-.797.328a1.098 1.098 0 0 0-.328.797c0 .282.14.61.328.797.188.188.516.328.797.328s.61-.14.797-.328c.235-.234.328-.515.328-.797 0-.28-.14-.609-.328-.797zM6.188 42.844a1.133 1.133 0 0 0-1.641-.047 1.133 1.133 0 0 0-.047 1.64c.234.235.516.376.844.376.281 0 .562-.094.797-.329.421-.468.468-1.172.046-1.64zM55.594 40.969c-1.36-2.157-4.078-2.907-6.328-1.735l-11.72 5.86a1.163 1.163 0 0 0-.515 1.547c.282.562.985.797 1.547.515l11.719-5.86c1.219-.608 2.625-.187 3.375.938.375.61.516 1.36.328 2.063-.188.703-.656 1.266-1.266 1.64l-15.703 8.579a12.994 12.994 0 0 1-6.328 1.64h-10.36a1.16 1.16 0 0 0-1.171 1.172 1.16 1.16 0 0 0 1.172 1.172h10.265c2.578 0 5.157-.656 7.453-1.922L53.767 48c1.172-.656 2.062-1.781 2.39-3.094.375-1.406.14-2.812-.562-3.937z"/><path d="M33.047 45.234l-4.828-3.843c-2.485-1.97-5.625-3.094-8.813-3.094H11.11a1.16 1.16 0 0 0-1.171-1.172H1.594a1.16 1.16 0 0 0-1.172 1.172 1.16 1.16 0 0 0 1.172 1.172h7.218v17.765H1.595a1.16 1.16 0 0 0-1.172 1.172 1.16 1.16 0 0 0 1.172 1.172h8.39a1.16 1.16 0 0 0 1.172-1.172V40.641h8.297c2.672 0 5.297.89 7.406 2.578l4.828 3.843c.563.47.844 1.126.75 1.876a2.04 2.04 0 0 1-1.218 1.593 2.052 2.052 0 0 1-1.875-.187l-6.188-4.078c-.515-.375-1.265-.188-1.593.328-.375.515-.188 1.265.328 1.593l6.187 4.079a4.321 4.321 0 0 0 2.39.703c.563 0 1.126-.094 1.641-.328 1.453-.61 2.438-1.875 2.672-3.375.094-1.594-.515-3.094-1.734-4.032zM58.406 20.531h-7.218V2.72h7.218a1.16 1.16 0 0 0 1.172-1.172A1.16 1.16 0 0 0 58.406.375h-8.39a1.16 1.16 0 0 0-1.172 1.172v17.765h-8.25a11.86 11.86 0 0 1-7.407-2.578l-4.828-3.843c-.562-.47-.843-1.125-.75-1.875a2.04 2.04 0 0 1 1.22-1.594 2.052 2.052 0 0 1 1.874.187l6.188 4.079c.515.374 1.265.187 1.593-.329.375-.515.188-1.265-.328-1.593L31.97 7.687c-1.172-.796-2.719-.937-4.032-.421-1.453.609-2.437 1.875-2.671 3.375a4.191 4.191 0 0 0 1.593 3.984l4.828 3.844c2.485 1.968 5.625 3.093 8.813 3.093h8.297a1.16 1.16 0 0 0 1.172 1.172h8.39a1.16 1.16 0 0 0 1.172-1.172c.047-.515-.468-1.03-1.125-1.03z"/><path d="M45.61 1.922a1.098 1.098 0 0 0-.797-.328c-.282 0-.61.14-.797.328a1.098 1.098 0 0 0-.328.797c0 .328.14.61.328.797.234.234.515.328.797.328.28 0 .609-.14.796-.328.188-.141.328-.47.328-.75 0-.282-.14-.61-.328-.844zM39.797 1.594H29.39c-2.578 0-5.157.656-7.453 1.922L6.233 12.094c-1.171.656-2.062 1.781-2.39 3.094a5.014 5.014 0 0 0 .61 3.843c.937 1.453 2.53 2.297 4.124 2.297.75 0 1.5-.187 2.203-.515l11.719-5.86c.563-.281.797-.984.516-1.547a1.163 1.163 0 0 0-1.547-.515L9.75 18.75c-1.219.61-2.625.188-3.375-.938-.375-.609-.516-1.359-.328-2.062.187-.703.656-1.266 1.266-1.64L23.015 5.53a12.994 12.994 0 0 1 6.328-1.64H39.75a1.16 1.16 0 0 0 1.172-1.172c0-.656-.469-1.125-1.125-1.125zM56.063 15.094A1.177 1.177 0 0 0 54.422 15a1.177 1.177 0 0 0-.094 1.64c.234.235.563.376.844.376s.562-.094.797-.282a1.177 1.177 0 0 0 .093-1.64z"/><path d="M33.188 23.297c-1.126 0-2.25.375-3.188 1.031-.938-.656-2.063-1.031-3.188-1.031-3.046 0-5.578 2.531-5.578 5.672 0 1.828 1.36 3.89 4.22 6.328 1.921 1.687 3.843 2.906 3.937 2.953.187.14.422.188.609.188.188 0 .422-.047.61-.188.093-.047 2.015-1.266 3.937-2.953 2.812-2.438 4.219-4.5 4.219-6.328 0-3.14-2.485-5.672-5.578-5.672zM30 35.907c-2.86-1.923-6.469-5.11-6.469-6.938 0-1.875 1.453-3.375 3.235-3.375.89 0 1.734.375 2.343 1.031.235.234.516.375.844.375.328 0 .61-.14.844-.375a3.195 3.195 0 0 1 2.344-1.031c1.78 0 3.234 1.5 3.234 3.375.094 1.828-3.516 5.015-6.375 6.937z" fill-rule="nonzero"/></g></svg>