<svg width="81" height="80" viewBox="0 0 81 80" xmlns="http://www.w3.org/2000/svg"><title>wedding</title><g fill-rule="nonzero" fill="none"><path d="M79.355 46.645c-1.484-6.193-5.226-11.677-10.387-15.42A27.037 27.037 0 0 0 52 26.13a27.051 27.051 0 0 0-13.677-13.355c-.581-.258-1.29 0-1.549.58-.258.581 0 1.291.58 1.55 5.807 2.515 10.323 7.096 12.84 12.838.516 1.29.967 2.58 1.29 3.935.064.323.193.71.258 1.097 1.161 6 .064 12.258-3.161 17.484a24.032 24.032 0 0 1-13.097 10.516c-.13-.193-.194-.451-.258-.71-.194-.451-.323-.903-.452-1.354 0-.065 0-.065-.064-.13-.065-.193-.13-.451-.194-.645 10.323-3.483 16.516-14.193 14.258-24.967-.064-.258-.129-.516-.129-.71-.387-1.613-.968-3.161-1.677-4.645-2.194-4.258-5.742-7.742-10.13-9.807a21.349 21.349 0 0 0-6.58-1.87l8.387-7.807c.452-.387.516-1.032.194-1.548L34.968.839c-.194-.323-.58-.516-.968-.516H21.355c-.387 0-.774.193-.968.516l-3.87 5.806c-.323.452-.259 1.097.193 1.549L25.097 16c-.839.129-1.678.258-2.516.452C10.968 19.29 3.87 31.032 6.645 42.58a21.732 21.732 0 0 0 7.871 12.064c3.613 2.774 7.936 4.323 12.452 4.452 0 .064.064.193.064.258.065.193.13.451.194.645 0 .065 0 .129.064.129.065.194.065.323.13.516 0 .065 0 .065.064.13.064.193.129.386.193.515v.065c.065.193.13.451.194.645-5.161 0-10.323-1.613-14.58-4.645C8.45 54 5.096 48.968 3.676 43.29c-1.354-5.677-.71-11.677 1.936-16.903 2.58-5.161 6.903-9.226 12.193-11.548.581-.258.904-.968.646-1.549-.258-.58-.968-.903-1.549-.645-5.742 2.516-10.516 6.968-13.355 12.645C.645 31.032-.129 37.613 1.42 43.871c1.549 6.258 5.226 11.742 10.387 15.484 4.646 3.355 10.13 5.097 15.807 5.097h1.097C33.16 73.935 42.774 80 53.16 80c2.13 0 4.258-.258 6.387-.774C74 75.677 82.903 61.096 79.355 46.646zm-28.71 4.839a27.227 27.227 0 0 0 3.678-17.742c3.87.258 7.548 1.613 10.645 4 3.484 2.71 5.87 6.387 6.903 10.645C74.387 58.71 68 69.161 57.677 71.677c-5.032 1.226-10.193.388-14.58-2.258-2.71-1.677-4.968-3.935-6.516-6.58 5.87-2 10.838-6 14.064-11.355zm-16.58 4.193a19.555 19.555 0 0 1 2.451-12.451c2.323-3.936 5.936-6.903 10.194-8.387C48 43.87 42.645 52.645 34.065 55.677zM22 2.71h11.29l2.258 3.419h-15.87L22 2.709zm-1.548 5.806h14.322l-7.161 6.645-7.161-6.645zm6 48.194a19.873 19.873 0 0 1-10.581-3.936c-3.548-2.71-5.936-6.387-6.968-10.71-2.516-10.322 3.871-20.774 14.194-23.29 4.322-1.032 8.71-.58 12.774 1.29 3.484 1.613 6.387 4.323 8.387 7.549-6.064 2.129-11.097 6.322-14.387 11.935-3.097 5.226-4.258 11.226-3.42 17.162zm32.516 20.193c-1.936.452-3.871.71-5.807.71-9.806 0-18.838-5.871-22.645-15.032-.064-.13-.064-.194-.129-.323 0-.064-.064-.064-.064-.129-.065-.129-.13-.258-.13-.387v-.065c-.064-.129-.128-.322-.193-.451-.065-.13-.129-.323-.194-.452-.064-.129-.129-.258-.129-.451v-.065c-.064-.129-.064-.323-.129-.452 0-.064 0-.129-.064-.129-.065-.129-.065-.258-.065-.322-.064-.194-.064-.323-.129-.516-.064-.194-.064-.323-.129-.516 0-.065 0-.13-.064-.194 0-.064-.065-.129-.065-.258v-.13c-1.161-5.87-.129-11.87 2.839-17.031 3.032-5.226 7.742-9.097 13.42-10.968.386.903.709 1.87.967 2.774a21.504 21.504 0 0 0-11.742 9.549C31.742 46.71 30.903 52.194 32 57.484c0 .064.065.193.065.258 0 .129.064.258.064.387.065.194.065.387.13.58 0 .065 0 .065.064.13.064.129.064.322.129.451 0 .065 0 .065.064.13.065.128.065.322.13.451v.064c.064.194.128.323.193.517 1.677 4.58 4.838 8.451 9.032 10.967 3.42 2.065 7.29 3.162 11.226 3.162 1.742 0 3.42-.194 5.161-.646 11.613-2.838 18.71-14.58 15.936-26.129-1.162-4.838-3.871-8.967-7.742-12-3.613-2.774-8-4.387-12.517-4.516 0-.064-.064-.193-.064-.258-.194-.903-.516-1.806-.839-2.71 5.226 0 10.323 1.613 14.58 4.71 4.71 3.42 8.065 8.452 9.485 14.065 3.226 13.29-4.903 26.645-18.13 29.806z" fill="#000"/><path d="M63.29 16.903c-.451.387-.967.839-1.484 1.29-.516-.451-1.032-.903-1.483-1.29-2.904-2.516-4.84-4.129-4.84-6.322 0-.904.323-1.742.84-2.323.516-.645 1.29-.968 2.129-.968 1.16 0 1.935.71 2.322 1.29.387.517.58 1.097.645 1.291.065.194.194.323.387.323.194 0 .323-.13.388-.323.064-.194.258-.774.645-1.29C63.29 8 64 7.29 65.16 7.29c.839 0 1.613.322 2.13.967.515.645.838 1.42.838 2.323 0 2.129-1.935 3.806-4.839 6.322zm1.871-10.516c-1.548 0-2.451.903-3.032 1.678l-.387.58c-.13-.193-.194-.387-.387-.58-.516-.775-1.484-1.678-3.032-1.678a3.708 3.708 0 0 0-2.775 1.226c-.71.774-1.032 1.806-1.032 2.903 0 1.226.452 2.323 1.484 3.484.903 1.097 2.194 2.194 3.677 3.42.581.451 1.162.967 1.742 1.483a.49.49 0 0 0 .258.13.49.49 0 0 0 .258-.13c.646-.516 1.162-1.032 1.742-1.484 1.484-1.29 2.775-2.387 3.678-3.419 1.032-1.226 1.484-2.323 1.484-3.484a4.553 4.553 0 0 0-1.033-2.903c-.58-.774-1.548-1.226-2.645-1.226z" fill="#040006"/></g></svg>