<?xml version="1.0" encoding="UTF-8"?>
<svg width="80px" height="80px" viewBox="0 0 80 80" version="1.1" xmlns="http://www.w3.org/2000/svg" xmlns:xlink="http://www.w3.org/1999/xlink">
    <!-- Generator: Sketch 52.6 (67491) - http://www.bohemiancoding.com/sketch -->
    <title>noun_wedding_2050591</title>
    <desc>Created with Sketch.</desc>
    <g id="Quentia-Index-1.5" stroke="none" stroke-width="1" fill="none" fill-rule="evenodd">
        <g id="index-menu-clicked" transform="translate(-335.000000, -1871.000000)" fill="#000000" fill-rule="nonzero">
            <g id="Group-18" transform="translate(335.000000, 1871.000000)">
                <g id="Group-14">
                    <g id="noun_wedding_2050591">
                        <path d="M30.8232422,80 C39.0566406,80 46.796875,76.7939453 52.6181641,70.972168 C55.8296509,67.7606812 58.2369995,63.9866944 59.7778321,59.7558594 C63.8647462,58.265564 67.6992188,55.8912964 70.9716798,52.6186524 C76.7939453,46.796875 80,39.0566406 80,30.8232422 C80,22.5898438 76.7939453,14.8496094 70.9716797,9.027832 C58.9541016,-2.9897461 39.3994141,-2.9897461 27.3818359,9.027832 C24.177185,12.2324829 21.7720947,15.9975586 20.2301635,20.2180786 C16.0693359,21.7373047 12.25354,24.1558838 9.0283202,27.3813476 C3.2060547,33.203125 0,40.9433594 0,49.1767578 C0,57.4101562 3.2060547,65.1503906 9.0283203,70.972168 C14.8496094,76.7939453 22.5898438,80 30.8232422,80 Z M28.7958984,10.4418945 C34.2402344,4.9980469 41.4775391,2 49.1767578,2 C56.8759765,2 64.1132812,4.9980469 69.5576172,10.4418945 C75.0019531,15.8862305 78,23.1245117 78,30.8232422 C78,38.5219727 75.0019531,45.7602539 69.5576172,51.2045899 C64.1132813,56.6484376 56.8759766,59.6464844 49.1767578,59.6464844 C41.477539,59.6464844 34.2402344,56.6484375 28.7958984,51.2045899 C23.0898437,45.4980469 20.0361938,37.6237794 20.3867797,29.5635987 C21.8903808,28.760254 23.4956664,28.1239014 25.1792602,27.6814576 C25.0444946,28.7209473 24.9531249,29.7698365 24.9531249,30.8232423 C24.9531249,44.1801759 35.8193358,55.0468751 49.1767577,55.0468751 C62.5341796,55.0468751 73.4003905,44.1801759 73.4003905,30.8232423 C73.4003905,17.4663087 62.5341797,6.5996094 49.1767578,6.5996094 C40.671936,6.5996094 32.6937256,11.1437989 28.3429565,18.460022 C26.4151611,18.6126099 24.524414,18.9424439 22.687561,19.4418946 C24.1254883,16.0856323 26.1746826,13.0635376 28.7958984,10.4418945 Z M49.2258911,61.6311646 C45.1121216,67.6935425 38.2051391,71.4003907 30.8232422,71.4003907 C18.569336,71.4003907 8.5996094,61.4306641 8.5996094,49.1767579 C8.5996094,41.5410157 12.4716187,34.793335 18.3543701,30.7909547 C18.3498535,38.9465333 21.5900879,46.8269044 27.3818359,52.6186525 C33.3916015,58.6284181 41.2832031,61.6328127 49.1767578,61.6323244 C49.1931763,61.6323242 49.2094727,61.6311646 49.2258911,61.6311646 Z M52.7536621,52.7550659 C51.588501,52.944458 50.3945923,53.046875 49.1767578,53.046875 C36.9228516,53.046875 26.953125,43.0771484 26.953125,30.8232422 C26.953125,29.6203613 27.062561,28.4203491 27.2536621,27.2436524 C28.4165039,27.0550538 29.6079712,26.9531251 30.8232422,26.9531251 C43.0771484,26.9531251 53.046875,36.9228517 53.046875,49.1767579 C53.046875,50.3776855 52.9437256,51.5791626 52.7536621,52.7550659 Z M61.6419678,49.2116699 C61.6467285,41.0562744 58.4060669,33.1687622 52.6181641,27.3813476 C46.796875,21.5595703 39.0566407,18.3535156 30.8232422,18.3535156 C30.8092651,18.3535156 30.7955322,18.3545532 30.7815552,18.3545532 C34.8963623,12.3059082 41.8210449,8.5996094 49.1767578,8.5996094 C61.430664,8.5996094 71.4003906,18.569336 71.4003906,30.8232422 C71.4003906,38.4606323 67.5267334,45.2096558 61.6419678,49.2116699 Z M10.4423828,28.7954102 C15.8867187,23.3515625 23.1240234,20.3535157 30.8232422,20.3535157 C38.522461,20.3535157 45.7597656,23.3515626 51.2041016,28.7954102 C56.9051514,34.4969483 59.9653321,42.3777466 59.6159668,50.4349976 C58.1121216,51.2387085 56.5065918,51.8753052 54.8226929,52.3179932 C54.9575806,51.2786866 55.046875,50.229065 55.046875,49.1767578 C55.046875,35.8198242 44.1806641,24.953125 30.8232422,24.953125 C17.4658203,24.953125 6.5996094,35.8198242 6.5996094,49.1767578 C6.5996094,62.5336914 17.4658203,73.4003906 30.8232422,73.4003906 C39.3557739,73.4003906 47.3027954,68.8555908 51.6573486,61.5252075 C53.5661621,61.3721924 55.4620971,61.0415649 57.3210449,60.5353393 C55.8831787,63.9002075 53.831665,66.9301147 51.2041015,69.5581054 C45.7597656,75.0019531 38.5224609,78 30.8232422,78 C23.1240235,78 15.8867188,75.0019531 10.4423828,69.5581055 C4.9980469,64.1137695 2,56.8754883 2,49.1767578 C2,41.4780273 4.9980469,34.2397461 10.4423828,28.7954102 Z" id="Shape"></path>
                        <path d="M3.4628906,3.487793 C3.0722656,3.878418 3.0722656,4.5112305 3.4628906,4.9018555 L7.7714844,9.2104493 C7.9667969,9.4057618 8.2226563,9.5034181 8.4785156,9.5034181 C8.7343749,9.5034181 8.9902344,9.4057619 9.1855468,9.2104493 C9.5761718,8.8198243 9.5761718,8.1870118 9.1855468,7.7963868 L4.876953,3.487793 C4.4863281,3.097168 3.8535156,3.097168 3.4628906,3.487793 Z" id="Shape"></path>
                        <path d="M13.0048828,0.909668 L12.3964844,6.8461914 C12.3408203,7.3955078 12.7402344,7.8867187 13.2900391,7.9428711 C13.3242188,7.9467773 13.3583985,7.9482422 13.3925782,7.9482422 C13.8994141,7.9482422 14.3339844,7.5649414 14.3867188,7.050293 L14.9951172,1.1137696 C15.0507813,0.5644532 14.6513672,0.0732423 14.1015625,0.0170899 C13.5634766,-0.0429688 13.0615234,0.3608398 13.0048828,0.909668 Z" id="Shape"></path>
                        <path d="M0.9990234,15.0117188 C1.0332031,15.0117188 1.0673828,15.010254 1.1015625,15.0063477 L7.0380859,14.3984375 C7.5878906,14.3422852 7.9873047,13.8515625 7.9316406,13.3017578 C7.875,12.7524414 7.3740234,12.347168 6.8349609,12.4091797 L0.8984375,13.0170899 C0.3486328,13.0732422 -0.0507813,13.5639649 0.0048828,14.1137696 C0.0576172,14.628418 0.4921875,15.0117188 0.9990234,15.0117188 Z" id="Shape"></path>
                        <path d="M70.7539062,70.7475586 C70.3632812,71.1386719 70.3632812,71.7714844 70.7539062,72.1621094 L75.0966796,76.5014649 C75.2919921,76.6962891 75.5478515,76.7939454 75.8037108,76.7939454 C76.0595701,76.7939454 76.3154296,76.6962892 76.510742,76.5009766 C76.901367,76.1098633 76.901367,75.4770508 76.510742,75.0864258 L72.1679686,70.7470703 C71.7773438,70.3574219 71.1445312,70.3569336 70.7539062,70.7475586 Z" id="Shape"></path>
                        <path d="M65.8955078,80 C66.4023437,80 66.836914,79.6166992 66.8896484,79.1020508 L67.5029296,73.1225586 C67.5585937,72.5732422 67.1591796,72.0820313 66.6093749,72.0258789 C66.0732421,71.9663086 65.5693358,72.3696289 65.5126952,72.918457 L64.899414,78.8979492 C64.8437499,79.4472656 65.243164,79.9384765 65.7929687,79.9946289 C65.8271484,79.9985352 65.8613281,80 65.8955078,80 Z" id="Shape"></path>
                        <path d="M73.0146484,67.5185547 C73.0488281,67.5185547 73.0830078,67.5170899 73.1171875,67.5131836 L79.1015625,66.9008789 C79.6513672,66.8447266 80.0507813,66.3540039 79.9951172,65.8046875 C79.9384766,65.2543945 79.4375,64.8491211 78.8984375,64.9116211 L72.9140625,65.5239258 C72.3642578,65.5800781 71.9648437,66.0708008 72.0205078,66.6201172 C72.0732422,67.1352539 72.5078125,67.5185547 73.0146484,67.5185547 Z" id="Shape"></path>
                    </g>
                </g>
            </g>
        </g>
    </g>
</svg>